<?xml version="1.0" encoding="utf-8"?>
<!-- Generator: Adobe Illustrator 25.0.1, SVG Export Plug-In . SVG Version: 6.00 Build 0)  -->
<svg version="1.0" id="katman_1" xmlns="http://www.w3.org/2000/svg" xmlns:xlink="http://www.w3.org/1999/xlink" x="0px" y="0px"
	 viewBox="0 0 512 342" style="enable-background:new 0 0 512 342;" xml:space="preserve">
<style type="text/css">
	.st0{fill:#F0F0F0;}
	.st1{fill:#D80027;}
	.st2{fill:#2E52B2;}
</style>
<g>
	<path class="st0" d="M0,0.3h512v341.3H0V0.3z"/>
	<path class="st1" d="M0,43h512v42.7H0V43z M0,128.3h512V171H0V128.3z M0,213.7h512v42.7H0V213.7z M0,299h512v42.7H0V299z"/>
	<path class="st2" d="M0,0.3h256v183.8H0V0.3z"/>
	<path class="st0" d="M99.8,75.6l-4.1,12.7H82.4l10.8,7.8L89,108.8l10.8-7.8l10.8,7.8l-4.1-12.7l10.8-7.8h-13.3L99.8,75.6z
		 M103.9,134.1l-4.1-12.7l-4.1,12.7H82.4l10.8,7.8L89,154.6l10.8-7.8l10.8,7.8l-4.1-12.7l10.8-7.8H103.9z M47.6,134.1l-4.1-12.7
		l-4.1,12.7H26l10.8,7.8l-4.1,12.7l10.8-7.8l10.8,7.8l-4.1-12.7l10.8-7.8H47.6z M43.5,75.6l-4.1,12.7H26l10.8,7.8l-4.1,12.7
		l10.8-7.8l10.8,7.8l-4.1-12.7l10.8-7.8H47.6L43.5,75.6z M99.8,29.9l-4.1,12.7H82.4l10.8,7.8L89,63.1l10.8-7.8l10.8,7.8l-4.1-12.7
		l10.8-7.8h-13.3L99.8,29.9z M43.5,29.9l-4.1,12.7H26l10.8,7.8l-4.1,12.7l10.8-7.8l10.8,7.8l-4.1-12.7l10.8-7.8H47.6L43.5,29.9z
		 M156.2,75.6l-4.1,12.7h-13.3l10.8,7.8l-4.1,12.7l10.8-7.8l10.8,7.8l-4.1-12.7l10.8-7.8h-13.3L156.2,75.6z M160.3,134.1l-4.1-12.7
		l-4.1,12.7h-13.3l10.8,7.8l-4.1,12.7l10.8-7.8l10.8,7.8l-4.1-12.7l10.8-7.8H160.3z M216.7,134.1l-4.1-12.7l-4.1,12.7h-13.3
		l10.8,7.8l-4.1,12.7l10.8-7.8l10.8,7.8l-4.1-12.7l10.8-7.8H216.7z M212.5,75.6l-4.1,12.7h-13.3l10.8,7.8l-4.1,12.7l10.8-7.8
		l10.8,7.8l-4.1-12.7l10.8-7.8h-13.3L212.5,75.6z M156.2,29.9l-4.1,12.7h-13.3l10.8,7.8l-4.1,12.7l10.8-7.8l10.8,7.8l-4.1-12.7
		l10.8-7.8h-13.3L156.2,29.9z M212.5,29.9l-4.1,12.7h-13.3l10.8,7.8l-4.1,12.7l10.8-7.8l10.8,7.8l-4.1-12.7l10.8-7.8h-13.3
		L212.5,29.9z"/>
</g>
</svg>
